:SAMPLES-PER-SECOND 30
:FRAME-RANGE 1-3535
:FULLY-SPECIFIED
:DEGREES
774
root  52.6946 38.7222 28.6058 -1.20819 1.94301 -3.25479
RightUpLeg  -8.27973 -0.243106 6.66461
RightLeg  23.491 -9.09104 -4.96828
RightFoot  -14.1028 -0.0822172 0.549224
RightToes  1.22775e-009 1.2921e-014 -6.02303e-014
Spine  9.5414 -0.418549 12.0427
Spine1  -2.47013 0.769617 1.30386
HEad  6.3881 -39.5821 3.87319
LeftShoulder1  0.950147 0.865715 -29.9335
LeftArm  13.7532 21.1423 -31.9188
LeftForeArm  1.13223 -26.8806 -5.72357
LeftHand  0.762189 -4.58951 -8.56189
RightShoulder  7.85226 10.5986 48.7731
RightArm  27.3091 3.60095 18.2166
RightForeArm  2.76231 28.2415 5.9616
RightHand  0.144077 5.65485 1.18891
LeftUpLeg  -22.1473 10.9096 8.79666
LeftLeg  55.2673 -3.72872 -5.29996
LeftFoot  -5.60701 0.756469 -14.3738
LeftToes  2.52163e-011 5.65494e-011 -1.09494e-012
775
root  53.0636 39.0278 29.9821 -1.29651 -0.774857 -2.49667
RightUpLeg  -3.81307 -2.1527 4.72687
RightLeg  19.1706 -5.04091 -2.61312
RightFoot  -14.2789 -0.0887504 0.307455
RightToes  1.22775e-009 1.2921e-014 -6.02303e-014
Spine  9.05476 -0.0129524 10.8174
Spine1  -2.42172 0.974547 0.727497
HEad  6.60819 -41.1349 3.62962
LeftShoulder1  0.919407 0.929558 -29.6272
LeftArm  11.2374 20.8237 -29.7286
LeftForeArm  2.33752 -27.7216 -5.85706
LeftHand  0.746346 -4.71321 -8.26784
RightShoulder  8.47863 11.7048 48.8266
RightArm  26.2791 4.1504 19.0561
RightForeArm  6.0567 32.5751 6.86184
RightHand  0.18412 5.38115 1.66617
LeftUpLeg  -21.7559 11.1093 9.83801
LeftLeg  43.4301 -2.73917 -2.3953
LeftFoot  -5.54419 0.727205 -13.6559
LeftToes  2.52163e-011 5.65494e-011 -1.09494e-012
776
root  53.4354 39.2556 31.3408 -1.08812 -3.85866 -1.78278
RightUpLeg  0.224312 -3.48157 2.49118
RightLeg  14.7733 -0.328485 -0.69584
RightFoot  -14.1282 -0.0803294 0.629014
RightToes  1.22775e-009 1.2921e-014 -6.02303e-014
Spine  8.16081 0.447295 9.65669
Spine1  -2.09178 1.28155 -0.211968
HEad  6.41751 -42.1053 3.45955
LeftShoulder1  0.832895 1.13836 -29.1106
LeftArm  10.143 20.5109 -27.6965
LeftForeArm  2.45792 -27.6585 -5.83576
LeftHand  0.688094 -4.78963 -7.5398
RightShoulder  8.98681 12.5915 48.896
RightArm  25.7033 4.5206 19.6951
RightForeArm  9.32218 36.4337 7.72816
RightHand  0.194316 5.32403 1.78876
LeftUpLeg  -19.728 10.976 11.0359
LeftLeg  28.7792 -3.07185 -1.49815
LeftFoot  -4.95852 0.761 -13.0716
LeftToes  2.52163e-011 5.65494e-011 -1.09494e-012
777
root  53.8145 39.3605 32.7534 -1.56004 -6.66901 -1.31757
RightUpLeg  4.63727 -4.36945 0.53939
RightLeg  11.0806 3.44156 -0.194901
RightFoot  -14.3415 -0.0631528 1.29629
RightToes  1.22775e-009 1.2921e-014 -6.02303e-014
Spine  7.49473 0.63144 8.67085
Spine1  -1.22226 1.45882 -1.05987
HEad  6.09775 -42.4539 3.58065
LeftShoulder1  0.736399 1.3834 -28.6151
LeftArm  10.3959 19.9941 -25.759
LeftForeArm  0.828755 -26.6432 -5.68434
LeftHand  0.634795 -4.67308 -7.02268
RightShoulder  9.32171 13.1018 49.1563
RightArm  25.2911 4.61208 19.8593
RightForeArm  12.2958 39.8502 8.57278
RightHand  0.214376 5.06893 2.07035
LeftUpLeg  -15.8833 7.21267 12.8563
LeftLeg  14.1037 -5.01136 -1.12448
LeftFoot  -5.20695 0.735542 -13.1007
LeftToes  2.52163e-011 5.65494e-011 -1.09494e-012
778
root  54.2946 39.2833 34.2053 -1.95969 -9.35428 -0.676056
RightUpLeg  7.52119 -4.62336 -1.36974
RightLeg  10.0155 6.53008 -0.934193
RightFoot  -15.7169 -0.0202646 2.25548
RightToes  1.22775e-009 1.2921e-014 -6.02303e-014
Spine  6.65821 0.869435 7.84003
Spine1  -0.61848 1.69408 -1.68142
HEad  6.51408 -42.9456 3.27609
LeftShoulder1  0.701772 1.45757 -28.1704
LeftArm  12.2064 19.3699 -24.2762
LeftForeArm  -2.76741 -24.6389 -5.41165
LeftHand  0.592409 -4.41774 -6.72316
RightShoulder  9.30598 12.998 49.383
RightArm  24.5301 3.96667 19.7746
RightForeArm  14.2224 42.4961 9.31837
RightHand  0.23351 5.05887 2.28517
LeftUpLeg  -13.0779 6.68277 12.6156
LeftLeg  4.05202 -10.3946 0.718699
LeftFoot  -5.72385 0.669658 -12.9088
LeftToes  2.52163e-011 5.65494e-011 -1.09494e-012
779
root  54.8329 39.0376 35.6782 -2.18553 -10.9948 -0.413376
RightUpLeg  9.43328 -3.58925 -2.27267
RightLeg  10.6996 7.41636 -2.56412
RightFoot  -18.1065 0.107819 3.89882
RightToes  1.22775e-009 1.2921e-014 -6.02303e-014
Spine  5.88941 0.713379 6.93619
Spine1  -0.301392 1.43919 -1.77019
HEad  7.78291 -43.4948 1.95295
LeftShoulder1  0.668301 1.53887 -27.8776
LeftArm  14.0746 18.6584 -23.3525
LeftForeArm  -6.18071 -21.9533 -5.87227
LeftHand  0.589247 -4.12657 -6.91108
RightShoulder  8.63775 11.7625 49.5553
RightArm  24.3701 3.47823 19.4135
RightForeArm  13.5181 44.2768 10.0008
RightHand  0.329105 4.69746 3.4883
LeftUpLeg  -12.9088 8.34127 12.1715
LeftLeg  2.33018 -9.52288 0.326147
LeftFoot  -4.64395 1.11453 -18.4367
LeftToes  2.52163e-011 5.65494e-011 -1.09494e-012
